<mxfile host="app.diagrams.net" modified="2023-08-26T05:56:08.917Z" agent="Mozilla/5.0 (Macintosh; Intel Mac OS X 10_15_7) AppleWebKit/537.36 (KHTML, like Gecko) Chrome/116.0.0.0 Safari/537.36" etag="TUfme1rFqocHVawpHXgc" version="21.6.9" type="github">
  <diagram id="R2lEEEUBdFMjLlhIrx00" name="Page-1">
    <mxGraphModel dx="1868" dy="1419" grid="1" gridSize="10" guides="1" tooltips="1" connect="1" arrows="1" fold="1" page="1" pageScale="1" pageWidth="850" pageHeight="1100" math="0" shadow="0" extFonts="Permanent Marker^https://fonts.googleapis.com/css?family=Permanent+Marker">
      <root>
        <mxCell id="0" />
        <mxCell id="1" parent="0" />
        <mxCell id="x6Mkhu2oInzsk-rDpsR4-3" value="" style="rounded=0;whiteSpace=wrap;html=1;strokeColor=#E07A5F;fontColor=#393C56;fillColor=#F2CC8F;" vertex="1" parent="1">
          <mxGeometry x="280" y="100" width="460" height="170" as="geometry" />
        </mxCell>
        <mxCell id="x6Mkhu2oInzsk-rDpsR4-13" style="edgeStyle=orthogonalEdgeStyle;rounded=0;orthogonalLoop=1;jettySize=auto;html=1;exitX=0;exitY=0.5;exitDx=0;exitDy=0;entryX=0.5;entryY=0;entryDx=0;entryDy=0;strokeColor=#E07A5F;fontColor=#393C56;fillColor=#F2CC8F;" edge="1" parent="1" source="x6Mkhu2oInzsk-rDpsR4-5" target="x6Mkhu2oInzsk-rDpsR4-7">
          <mxGeometry relative="1" as="geometry" />
        </mxCell>
        <mxCell id="x6Mkhu2oInzsk-rDpsR4-17" style="edgeStyle=orthogonalEdgeStyle;rounded=0;orthogonalLoop=1;jettySize=auto;html=1;exitX=1;exitY=0.5;exitDx=0;exitDy=0;strokeColor=#E07A5F;fontColor=#393C56;fillColor=#F2CC8F;" edge="1" parent="1" source="x6Mkhu2oInzsk-rDpsR4-5" target="x6Mkhu2oInzsk-rDpsR4-11">
          <mxGeometry relative="1" as="geometry" />
        </mxCell>
        <mxCell id="x6Mkhu2oInzsk-rDpsR4-72" style="edgeStyle=orthogonalEdgeStyle;rounded=0;orthogonalLoop=1;jettySize=auto;html=1;exitX=0.25;exitY=1;exitDx=0;exitDy=0;entryX=0.5;entryY=0;entryDx=0;entryDy=0;strokeColor=#E07A5F;fontColor=#393C56;fillColor=#F2CC8F;" edge="1" parent="1" source="x6Mkhu2oInzsk-rDpsR4-5" target="x6Mkhu2oInzsk-rDpsR4-8">
          <mxGeometry relative="1" as="geometry" />
        </mxCell>
        <mxCell id="x6Mkhu2oInzsk-rDpsR4-74" style="edgeStyle=orthogonalEdgeStyle;rounded=0;orthogonalLoop=1;jettySize=auto;html=1;exitX=0.75;exitY=1;exitDx=0;exitDy=0;entryX=0.5;entryY=0;entryDx=0;entryDy=0;strokeColor=#E07A5F;fontColor=#393C56;fillColor=#F2CC8F;" edge="1" parent="1" source="x6Mkhu2oInzsk-rDpsR4-5" target="x6Mkhu2oInzsk-rDpsR4-9">
          <mxGeometry relative="1" as="geometry" />
        </mxCell>
        <mxCell id="x6Mkhu2oInzsk-rDpsR4-5" value="&amp;lt;Aggregate Root&amp;gt;&lt;br&gt;User" style="rounded=1;whiteSpace=wrap;html=1;strokeColor=#6c8ebf;fillColor=#dae8fc;" vertex="1" parent="1">
          <mxGeometry x="450" y="120" width="120" height="60" as="geometry" />
        </mxCell>
        <mxCell id="x6Mkhu2oInzsk-rDpsR4-7" value="Email" style="rounded=1;whiteSpace=wrap;html=1;strokeColor=#6c8ebf;fillColor=#dae8fc;arcSize=50;" vertex="1" parent="1">
          <mxGeometry x="310" y="209" width="80" height="40" as="geometry" />
        </mxCell>
        <mxCell id="x6Mkhu2oInzsk-rDpsR4-8" value="Nickname" style="rounded=1;whiteSpace=wrap;html=1;strokeColor=#6c8ebf;fillColor=#dae8fc;arcSize=50;" vertex="1" parent="1">
          <mxGeometry x="410" y="209" width="80" height="40" as="geometry" />
        </mxCell>
        <mxCell id="x6Mkhu2oInzsk-rDpsR4-9" value="Point" style="rounded=1;whiteSpace=wrap;html=1;strokeColor=#6c8ebf;fillColor=#dae8fc;arcSize=50;" vertex="1" parent="1">
          <mxGeometry x="530" y="209" width="80" height="40" as="geometry" />
        </mxCell>
        <mxCell id="x6Mkhu2oInzsk-rDpsR4-11" value="UserType" style="rounded=1;whiteSpace=wrap;html=1;strokeColor=#6c8ebf;fillColor=#dae8fc;arcSize=50;" vertex="1" parent="1">
          <mxGeometry x="630" y="209" width="80" height="40" as="geometry" />
        </mxCell>
        <mxCell id="x6Mkhu2oInzsk-rDpsR4-18" value="" style="rounded=0;whiteSpace=wrap;html=1;strokeColor=#E07A5F;fontColor=#393C56;fillColor=#F2CC8F;" vertex="1" parent="1">
          <mxGeometry x="280" y="320" width="460" height="170" as="geometry" />
        </mxCell>
        <mxCell id="x6Mkhu2oInzsk-rDpsR4-19" style="edgeStyle=orthogonalEdgeStyle;rounded=0;orthogonalLoop=1;jettySize=auto;html=1;exitX=0;exitY=0.5;exitDx=0;exitDy=0;entryX=0.5;entryY=0;entryDx=0;entryDy=0;strokeColor=#E07A5F;fontColor=#393C56;fillColor=#F2CC8F;" edge="1" source="x6Mkhu2oInzsk-rDpsR4-24" target="x6Mkhu2oInzsk-rDpsR4-25" parent="1">
          <mxGeometry relative="1" as="geometry" />
        </mxCell>
        <mxCell id="x6Mkhu2oInzsk-rDpsR4-20" style="edgeStyle=orthogonalEdgeStyle;rounded=0;orthogonalLoop=1;jettySize=auto;html=1;exitX=0;exitY=1;exitDx=0;exitDy=0;strokeColor=#E07A5F;fontColor=#393C56;fillColor=#F2CC8F;" edge="1" source="x6Mkhu2oInzsk-rDpsR4-24" target="x6Mkhu2oInzsk-rDpsR4-26" parent="1">
          <mxGeometry relative="1" as="geometry">
            <Array as="points">
              <mxPoint x="430" y="400" />
              <mxPoint x="430" y="409" />
              <mxPoint x="420" y="409" />
            </Array>
          </mxGeometry>
        </mxCell>
        <mxCell id="x6Mkhu2oInzsk-rDpsR4-21" style="edgeStyle=orthogonalEdgeStyle;rounded=0;orthogonalLoop=1;jettySize=auto;html=1;exitX=0.5;exitY=1;exitDx=0;exitDy=0;entryX=0.5;entryY=0;entryDx=0;entryDy=0;strokeColor=#E07A5F;fontColor=#393C56;fillColor=#F2CC8F;" edge="1" source="x6Mkhu2oInzsk-rDpsR4-24" target="x6Mkhu2oInzsk-rDpsR4-27" parent="1">
          <mxGeometry relative="1" as="geometry" />
        </mxCell>
        <mxCell id="x6Mkhu2oInzsk-rDpsR4-22" style="edgeStyle=orthogonalEdgeStyle;rounded=0;orthogonalLoop=1;jettySize=auto;html=1;exitX=1;exitY=1;exitDx=0;exitDy=0;strokeColor=#E07A5F;fontColor=#393C56;fillColor=#F2CC8F;" edge="1" source="x6Mkhu2oInzsk-rDpsR4-24" target="x6Mkhu2oInzsk-rDpsR4-28" parent="1">
          <mxGeometry relative="1" as="geometry">
            <Array as="points">
              <mxPoint x="590" y="400" />
              <mxPoint x="590" y="409" />
              <mxPoint x="600" y="409" />
            </Array>
          </mxGeometry>
        </mxCell>
        <mxCell id="x6Mkhu2oInzsk-rDpsR4-23" style="edgeStyle=orthogonalEdgeStyle;rounded=0;orthogonalLoop=1;jettySize=auto;html=1;exitX=1;exitY=0.5;exitDx=0;exitDy=0;strokeColor=#E07A5F;fontColor=#393C56;fillColor=#F2CC8F;" edge="1" source="x6Mkhu2oInzsk-rDpsR4-24" target="x6Mkhu2oInzsk-rDpsR4-29" parent="1">
          <mxGeometry relative="1" as="geometry" />
        </mxCell>
        <mxCell id="x6Mkhu2oInzsk-rDpsR4-24" value="&amp;lt;Aggregate Root&amp;gt;&lt;br&gt;Store" style="rounded=1;whiteSpace=wrap;html=1;strokeColor=#6c8ebf;fillColor=#dae8fc;" vertex="1" parent="1">
          <mxGeometry x="450" y="340" width="120" height="60" as="geometry" />
        </mxCell>
        <mxCell id="x6Mkhu2oInzsk-rDpsR4-25" value="Address" style="rounded=1;whiteSpace=wrap;html=1;strokeColor=#6c8ebf;fillColor=#dae8fc;arcSize=50;" vertex="1" parent="1">
          <mxGeometry x="290" y="429" width="80" height="40" as="geometry" />
        </mxCell>
        <mxCell id="x6Mkhu2oInzsk-rDpsR4-26" value="PhoneNumber" style="rounded=1;whiteSpace=wrap;html=1;strokeColor=#6c8ebf;fillColor=#dae8fc;arcSize=50;" vertex="1" parent="1">
          <mxGeometry x="380" y="429" width="80" height="40" as="geometry" />
        </mxCell>
        <mxCell id="x6Mkhu2oInzsk-rDpsR4-27" value="StoreId" style="rounded=1;whiteSpace=wrap;html=1;strokeColor=#6c8ebf;fillColor=#dae8fc;arcSize=50;" vertex="1" parent="1">
          <mxGeometry x="470" y="429" width="80" height="40" as="geometry" />
        </mxCell>
        <mxCell id="x6Mkhu2oInzsk-rDpsR4-28" value="StoreName" style="rounded=1;whiteSpace=wrap;html=1;strokeColor=#6c8ebf;fillColor=#dae8fc;arcSize=50;" vertex="1" parent="1">
          <mxGeometry x="560" y="429" width="80" height="40" as="geometry" />
        </mxCell>
        <mxCell id="x6Mkhu2oInzsk-rDpsR4-29" value="StoreType" style="rounded=1;whiteSpace=wrap;html=1;strokeColor=#6c8ebf;fillColor=#dae8fc;arcSize=50;" vertex="1" parent="1">
          <mxGeometry x="650" y="429" width="80" height="40" as="geometry" />
        </mxCell>
        <mxCell id="x6Mkhu2oInzsk-rDpsR4-30" value="" style="rounded=0;whiteSpace=wrap;html=1;strokeColor=#E07A5F;fontColor=#393C56;fillColor=#F2CC8F;" vertex="1" parent="1">
          <mxGeometry x="360" y="520" width="310" height="170" as="geometry" />
        </mxCell>
        <mxCell id="x6Mkhu2oInzsk-rDpsR4-31" style="edgeStyle=orthogonalEdgeStyle;rounded=0;orthogonalLoop=1;jettySize=auto;html=1;exitX=0;exitY=0.5;exitDx=0;exitDy=0;entryX=0.5;entryY=0;entryDx=0;entryDy=0;strokeColor=#E07A5F;fontColor=#393C56;fillColor=#F2CC8F;" edge="1" source="x6Mkhu2oInzsk-rDpsR4-36" target="x6Mkhu2oInzsk-rDpsR4-37" parent="1">
          <mxGeometry relative="1" as="geometry" />
        </mxCell>
        <mxCell id="x6Mkhu2oInzsk-rDpsR4-33" style="edgeStyle=orthogonalEdgeStyle;rounded=0;orthogonalLoop=1;jettySize=auto;html=1;exitX=0.5;exitY=1;exitDx=0;exitDy=0;entryX=0.5;entryY=0;entryDx=0;entryDy=0;strokeColor=#E07A5F;fontColor=#393C56;fillColor=#F2CC8F;" edge="1" source="x6Mkhu2oInzsk-rDpsR4-36" target="x6Mkhu2oInzsk-rDpsR4-39" parent="1">
          <mxGeometry relative="1" as="geometry" />
        </mxCell>
        <mxCell id="x6Mkhu2oInzsk-rDpsR4-35" style="edgeStyle=orthogonalEdgeStyle;rounded=0;orthogonalLoop=1;jettySize=auto;html=1;exitX=1;exitY=0.5;exitDx=0;exitDy=0;strokeColor=#E07A5F;fontColor=#393C56;fillColor=#F2CC8F;" edge="1" source="x6Mkhu2oInzsk-rDpsR4-36" target="x6Mkhu2oInzsk-rDpsR4-41" parent="1">
          <mxGeometry relative="1" as="geometry" />
        </mxCell>
        <mxCell id="x6Mkhu2oInzsk-rDpsR4-36" value="&amp;lt;Aggregate Root&amp;gt;&lt;br&gt;Product" style="rounded=1;whiteSpace=wrap;html=1;strokeColor=#6c8ebf;fillColor=#dae8fc;" vertex="1" parent="1">
          <mxGeometry x="450" y="540" width="120" height="60" as="geometry" />
        </mxCell>
        <mxCell id="x6Mkhu2oInzsk-rDpsR4-37" value="Price" style="rounded=1;whiteSpace=wrap;html=1;strokeColor=#6c8ebf;fillColor=#dae8fc;arcSize=50;" vertex="1" parent="1">
          <mxGeometry x="380" y="620" width="80" height="40" as="geometry" />
        </mxCell>
        <mxCell id="x6Mkhu2oInzsk-rDpsR4-39" value="ProductId" style="rounded=1;whiteSpace=wrap;html=1;strokeColor=#6c8ebf;fillColor=#dae8fc;arcSize=50;" vertex="1" parent="1">
          <mxGeometry x="470" y="629" width="80" height="40" as="geometry" />
        </mxCell>
        <mxCell id="x6Mkhu2oInzsk-rDpsR4-41" value="ProductName" style="rounded=1;whiteSpace=wrap;html=1;strokeColor=#6c8ebf;fillColor=#dae8fc;arcSize=50;" vertex="1" parent="1">
          <mxGeometry x="570" y="629" width="80" height="40" as="geometry" />
        </mxCell>
        <mxCell id="x6Mkhu2oInzsk-rDpsR4-42" value="1..N" style="edgeStyle=orthogonalEdgeStyle;rounded=0;orthogonalLoop=1;jettySize=auto;html=1;exitX=0.25;exitY=1;exitDx=0;exitDy=0;entryX=0.5;entryY=0;entryDx=0;entryDy=0;strokeColor=#38E06A;fontColor=#393C56;fillColor=#F2CC8F;strokeWidth=5;" edge="1" parent="1" source="x6Mkhu2oInzsk-rDpsR4-24" target="x6Mkhu2oInzsk-rDpsR4-36">
          <mxGeometry relative="1" as="geometry">
            <Array as="points">
              <mxPoint x="470" y="400" />
              <mxPoint x="470" y="520" />
              <mxPoint x="510" y="520" />
            </Array>
          </mxGeometry>
        </mxCell>
        <mxCell id="x6Mkhu2oInzsk-rDpsR4-55" value="" style="rounded=0;whiteSpace=wrap;html=1;strokeColor=#E07A5F;fontColor=#393C56;fillColor=#F2CC8F;" vertex="1" parent="1">
          <mxGeometry x="-70" y="100" width="180" height="170" as="geometry" />
        </mxCell>
        <mxCell id="x6Mkhu2oInzsk-rDpsR4-70" style="edgeStyle=orthogonalEdgeStyle;rounded=0;orthogonalLoop=1;jettySize=auto;html=1;exitX=0.5;exitY=1;exitDx=0;exitDy=0;strokeColor=#E07A5F;fontColor=#393C56;fillColor=#F2CC8F;entryX=0.5;entryY=0;entryDx=0;entryDy=0;" edge="1" parent="1" source="x6Mkhu2oInzsk-rDpsR4-61" target="x6Mkhu2oInzsk-rDpsR4-66">
          <mxGeometry relative="1" as="geometry">
            <mxPoint x="20" y="209" as="targetPoint" />
          </mxGeometry>
        </mxCell>
        <mxCell id="x6Mkhu2oInzsk-rDpsR4-61" value="&amp;lt;Aggregate Root&amp;gt;&lt;br&gt;PointHistory" style="rounded=1;whiteSpace=wrap;html=1;strokeColor=#6c8ebf;fillColor=#dae8fc;" vertex="1" parent="1">
          <mxGeometry x="-40" y="120" width="120" height="60" as="geometry" />
        </mxCell>
        <mxCell id="x6Mkhu2oInzsk-rDpsR4-66" value="Point" style="rounded=1;whiteSpace=wrap;html=1;strokeColor=#6c8ebf;fillColor=#dae8fc;arcSize=50;" vertex="1" parent="1">
          <mxGeometry x="-20" y="209" width="80" height="40" as="geometry" />
        </mxCell>
      </root>
    </mxGraphModel>
  </diagram>
</mxfile>
